M48
INCH,TZ
T1C0.022
T2C0.024
T3C0.025
T4C0.032
T5C0.035
T6C0.039
T7C0.050
T8C0.144
%
G90
G05
T1
X41535Y-45760
X41535Y-46760
T2
X42201Y-34252
X45201Y-34252
X46531Y-42323
X49531Y-42323
T3
X43504Y-40748
X43504Y-44488
X43898Y-38780
X43898Y-43307
X43898Y-43701
X43898Y-44094
X44488Y-45079
X44488Y-45472
X45472Y-40945
X45669Y-41732
X45669Y-43307
X45669Y-43701
X45669Y-44094
X45669Y-45079
X45669Y-45472
X46654Y-44291
X46654Y-44685
X47047Y-48228
X47047Y-49213
X47441Y-49606
X47835Y-44291
X47835Y-44685
X47835Y-48228
X48031Y-44291
X48031Y-44685
X49016Y-44291
X49016Y-44685
X49213Y-36220
X53346Y-53740
X53346Y-54724
X53543Y-50787
X53937Y-52559
X55118Y-53150
X57283Y-42126
X58858Y-42126
T4
X39051Y-43701
X39248Y-49016
X40354Y-40642
X40354Y-41642
X42051Y-43701
X42248Y-49016
X43307Y-42594
X43307Y-45594
X44882Y-35508
X44882Y-38508
X44957Y-39567
X45079Y-46728
X45079Y-49728
X45941Y-35311
X45941Y-38311
X46303Y-53346
X46335Y-46728
X46335Y-47728
X46335Y-48728
X46335Y-49728
X46531Y-41142
X46941Y-35311
X46941Y-38311
X47303Y-53346
X47941Y-35311
X47941Y-38311
X47957Y-39567
X48303Y-53346
X48941Y-35311
X48941Y-38311
X49303Y-53346
X49335Y-46728
X49335Y-47728
X49335Y-48728
X49335Y-49728
X49531Y-41142
X50000Y-34917
X50000Y-37917
X50303Y-53346
X50591Y-41035
X50591Y-42035
X50591Y-43382
X50591Y-46382
X51165Y-35433
X51303Y-53346
X51650Y-47047
X51650Y-48319
X51650Y-49319
X52165Y-35433
X52303Y-53346
X52437Y-43307
X52559Y-39248
X52559Y-42248
X53165Y-35433
X53303Y-53346
X54528Y-33933
X54528Y-36933
X54650Y-47047
X54650Y-48319
X54650Y-49319
X55437Y-43307
X55783Y-49213
X55906Y-45154
X55906Y-48154
X56965Y-43307
X58783Y-49213
X59965Y-43307
T5
X54134Y-38870
X54134Y-39870
X54134Y-40870
X54134Y-41870
T7
X51165Y-34417
X52165Y-38417
X53165Y-34417
T8
X42520Y-37205
X42520Y-51575
X56890Y-37205
X56890Y-51575
T6
X57598Y-44291G85X57362Y-44291
G05
X57598Y-45276G85X57362Y-45276
G05
X57598Y-47244G85X57362Y-47244
G05
X57598Y-48228G85X57362Y-48228
G05
X59449Y-46142G85X59449Y-46378
G05
T0
M30
